<svg width="24px" height="24px" viewBox="0 0 256 224" version="1.1"
  xmlnsXlink="http://www.w3.org/1999/xlink"
  xmlns="http://www.w3.org/2000/svg">
  <g id="Group-2">
    <path d="M77.1095 81.525L125.542 53.563C126.754 52.863 128.247 52.863 129.46 53.563L177.893 81.525C179.104 82.225 179.852 83.518 179.852 84.918L179.852 140.842C179.852 142.241 179.104 143.535 177.893 144.236L129.46 172.198C128.247 172.898 126.754 172.898 125.542 172.198L77.1095 144.236C75.8975 143.536 75.1505 142.242 75.1505 140.842L75.1505 84.918C75.1515 83.518 75.8985 82.225 77.1095 81.525" id="Shape" fill="#8080F2" stroke="none" />
    <path d="M253.424 106.997L195.557 6.325C193.455 2.685 189.572 0 185.369 0L69.6335 0C65.4295 0 61.5455 2.685 59.4435 6.325L1.5765 106.775C-0.525499 110.416 -0.525499 115.011 1.5765 118.652L59.4435 218.499C61.5455 222.139 65.4295 224 69.6335 224L185.368 224C189.571 224 193.456 222.195 195.557 218.554L253.423 118.544C255.527 114.905 255.527 110.637 253.424 106.997M205.508 155.407C205.508 156.887 204.617 158.256 203.334 158.997L129.624 201.524C128.342 202.264 126.736 202.264 125.454 201.524L51.6865 158.997C50.4045 158.256 49.5075 156.888 49.5075 155.407L49.5075 70.352C49.5075 68.871 50.3915 67.503 51.6745 66.762L125.382 24.235C126.663 23.494 128.268 23.494 129.549 24.235L203.322 66.762C204.605 67.503 205.508 68.871 205.508 70.352L205.508 155.407L205.508 155.407Z" id="Shape" fill="#4B32C3" fillRule="evenodd" stroke="none" />
  </g>
</svg>