<svg xmlns="http://www.w3.org/2000/svg" xmlns:xlink="http://www.w3.org/1999/xlink" viewBox="0 0 64 64" id="construction"><defs><linearGradient id="a" x1="34" x2="44" y1="39" y2="39" gradientUnits="userSpaceOnUse"><stop offset="0" stop-color="#f0cb49"></stop><stop offset="1" stop-color="#e17e43"></stop></linearGradient><linearGradient id="d" x1="44" x2="54" y1="33" y2="33" xlink:href="#a"></linearGradient><linearGradient id="e" x1="33.21" x2="34.67" y1="34" y2="42.33" xlink:href="#a"></linearGradient><linearGradient id="f" x1="43.47" x2="44.34" y1="29.65" y2="40.11" xlink:href="#a"></linearGradient><linearGradient id="g" x1="53.64" x2="54.26" y1="27.54" y2="35.21" xlink:href="#a"></linearGradient><linearGradient id="h" x1="38.53" x2="39.49" y1="36.84" y2="42.26" xlink:href="#a"></linearGradient><linearGradient id="i" x1="48.52" x2="49.35" y1="30.39" y2="35.8" xlink:href="#a"></linearGradient><linearGradient id="c" x1="32" x2="34" y1="23" y2="23" gradientUnits="userSpaceOnUse"><stop offset="0" stop-color="#3c6db0"></stop><stop offset="1" stop-color="#291f51"></stop></linearGradient><linearGradient id="b" x1="14" x2="21.92" y1="11" y2="11" gradientUnits="userSpaceOnUse"><stop offset="0" stop-color="#7bc7e9"></stop><stop offset="1" stop-color="#3c6db0"></stop></linearGradient><linearGradient id="j" x2="22" y1="35" y2="35" xlink:href="#b"></linearGradient><linearGradient id="k" x2="22" y1="47" y2="47" xlink:href="#b"></linearGradient><linearGradient id="l" x2="22" y1="41" y2="41" xlink:href="#b"></linearGradient><linearGradient id="m" x2="22" y1="23" y2="23" xlink:href="#b"></linearGradient><linearGradient id="n" x2="22" y1="29" y2="29" xlink:href="#b"></linearGradient><linearGradient id="o" x1="8" x2="53" y1="16.5" y2="16.5" gradientUnits="userSpaceOnUse"><stop offset="0" stop-color="#e17e43"></stop><stop offset="1" stop-color="#85152e"></stop></linearGradient><linearGradient id="p" x1="39.85" x2="51.42" y1="42.35" y2="53.92" gradientUnits="userSpaceOnUse"><stop offset="0" stop-color="#f9f9df"></stop><stop offset="1" stop-color="#b6bdc6"></stop></linearGradient><linearGradient id="q" x1="26" x2="40" y1="29" y2="29" xlink:href="#a"></linearGradient><linearGradient id="r" x1="12" x2="24" y1="53.5" y2="53.5" xlink:href="#c"></linearGradient></defs><rect width="10" height="2" x="34" y="38" fill="url(#a)"></rect><rect width="10" height="2" x="44" y="32" fill="url(#d)"></rect><rect width="2" height="9" x="33" y="34" fill="url(#e)"></rect><rect width="2" height="14" x="43" y="29" fill="url(#f)"></rect><rect width="2" height="10" x="53" y="27" fill="url(#g)"></rect><rect width="2" height="7" x="38" y="36" fill="url(#h)"></rect><rect width="2" height="7" x="48" y="30" fill="url(#i)"></rect><path fill="url(#c)" d="M33,28a1,1,0,0,1-1-1V19a1,1,0,0,1,2,0v8A1,1,0,0,1,33,28Z"></path><path fill="url(#b)" d="M20.92,15H15a1,1,0,0,1-1-1V8a1,1,0,0,1,1-1h2a1,1,0,0,1,.84.45l3.92,6a1,1,0,0,1,0,1A1,1,0,0,1,20.92,15ZM16,13h3.07L16.46,9H16Z"></path><path fill="url(#j)" d="M21,52H15a1,1,0,0,1-1-1V19a1,1,0,0,1,1-1h6a1,1,0,0,1,1,1V51A1,1,0,0,1,21,52Zm-5-2h4V20H16Z"></path><path fill="url(#k)" d="M15,51a1,1,0,0,1-.71-.29,1,1,0,0,1,0-1.42l6-6a1,1,0,0,1,1.42,1.42l-6,6A1,1,0,0,1,15,51Z"></path><path fill="url(#l)" d="M21,45a1,1,0,0,1-.71-.29l-6-6a1,1,0,0,1,1.42-1.42l6,6a1,1,0,0,1,0,1.42A1,1,0,0,1,21,45Z"></path><path fill="url(#j)" d="M15,39a1,1,0,0,1-.71-.29,1,1,0,0,1,0-1.42l6-6a1,1,0,0,1,1.42,1.42l-6,6A1,1,0,0,1,15,39Z"></path><path fill="url(#m)" d="M15,27a1,1,0,0,1-.71-.29,1,1,0,0,1,0-1.42l6-6a1,1,0,0,1,1.42,1.42l-6,6A1,1,0,0,1,15,27Z"></path><path fill="url(#n)" d="M21,33a1,1,0,0,1-.71-.29l-6-6a1,1,0,0,1,1.42-1.42l6,6a1,1,0,0,1,0,1.42A1,1,0,0,1,21,33Z"></path><polygon fill="url(#o)" points="53 17 53 19 8 19 8 17 10.92 14 47.17 14 53 17"></polygon><polygon fill="url(#p)" points="44 37 44 43 32 43 32 56 56 56 56 43 56 37 44 37"></polygon><rect width="14" height="4" x="26" y="27" fill="url(#q)"></rect><rect width="12" height="5" x="12" y="51" fill="url(#r)"></rect></svg>