<svg width="24px" height="24px" viewBox="0 0 257 256" version="1.1"
  xmlnsXlink="http://www.w3.org/1999/xlink"
  xmlns="http://www.w3.org/2000/svg">
  <g id="Group">
    <path d="M182.857 54.8571L182.857 53.7619C182.857 52.3812 183.345 51.2027 184.322 50.2264C185.298 49.2501 186.476 48.7619 187.857 48.7619L202.238 48.7619C203.619 48.7619 204.797 49.2501 205.774 50.2264C206.75 51.2027 207.238 52.3812 207.238 53.7619L207.238 55.9524C207.238 57.3331 206.75 58.5116 205.774 59.4879C204.797 60.4642 203.619 60.9524 202.238 60.9524L187.857 60.9524C186.476 60.9524 185.298 60.4642 184.322 59.4879C183.345 58.5116 182.857 57.3331 182.857 55.9524L182.857 54.8571Z" id="Rectangle" fill="#56B3B4" fillRule="evenodd" stroke="none" />
    <path d="M0 249.905L0 248.81C0 247.429 0.488155 246.25 1.46447 245.274C2.44078 244.298 3.61929 243.81 5 243.81L68.1429 243.81C69.5236 243.81 70.7021 244.298 71.6784 245.274C72.6547 246.25 73.1429 247.429 73.1429 248.81L73.1429 251C73.1429 252.381 72.6547 253.559 71.6784 254.536C70.7021 255.512 69.5236 256 68.1429 256L5 256C3.61929 256 2.44078 255.512 1.46447 254.536C0.488155 253.559 0 252.381 0 251L0 249.905Z" id="Rectangle" fill="#EA5E5E" fillRule="evenodd" stroke="none" />
    <path d="M146.286 152.381L146.286 151.286C146.286 149.905 146.774 148.726 147.75 147.75C148.726 146.774 149.905 146.286 151.286 146.286L190.048 146.286C191.428 146.286 192.607 146.774 193.583 147.75C194.559 148.726 195.048 149.905 195.048 151.286L195.048 153.476C195.048 154.857 194.559 156.035 193.583 157.012C192.607 157.988 191.428 158.476 190.048 158.476L151.286 158.476C149.905 158.476 148.726 157.988 147.75 157.012C146.774 156.035 146.286 154.857 146.286 153.476L146.286 152.381Z" id="Rectangle" fill="#BF85BF" fillRule="evenodd" stroke="none" />
    <path d="M73.1428 152.381L73.1428 151.286C73.1428 149.905 73.631 148.726 74.6073 147.75C75.5836 146.774 76.7621 146.286 78.1428 146.286L129.095 146.286C130.476 146.286 131.654 146.774 132.631 147.75C133.607 148.726 134.095 149.905 134.095 151.286L134.095 153.476C134.095 154.857 133.607 156.035 132.631 157.012C131.654 157.988 130.476 158.476 129.095 158.476L78.1428 158.476C76.7621 158.476 75.5836 157.988 74.6073 157.012C73.631 156.035 73.1428 154.857 73.1428 153.476L73.1428 152.381Z" id="Rectangle" fill="#EA5E5E" fillRule="evenodd" stroke="none" />
    <path d="M0 152.381L0 151.286C0 149.905 0.488155 148.726 1.46447 147.75C2.44078 146.774 3.61929 146.286 5 146.286L55.9524 146.286C57.3331 146.286 58.5116 146.774 59.4879 147.75C60.4642 148.726 60.9524 149.905 60.9524 151.286L60.9524 153.476C60.9524 154.857 60.4642 156.035 59.4879 157.012C58.5116 157.988 57.3331 158.476 55.9524 158.476L5 158.476C3.61929 158.476 2.44078 157.988 1.46447 157.012C0.488155 156.035 0 154.857 0 153.476L0 152.381Z" id="Rectangle" fill="#56B3B4" fillRule="evenodd" stroke="none" />
    <path d="M0 201.143L0 200.048C0 198.667 0.488155 197.488 1.46447 196.512C2.44078 195.536 3.61929 195.048 5 195.048L68.1429 195.048C69.5236 195.048 70.7021 195.536 71.6784 196.512C72.6547 197.488 73.1429 198.667 73.1429 200.048L73.1429 202.238C73.1429 203.619 72.6547 204.797 71.6784 205.774C70.7021 206.75 69.5236 207.238 68.1429 207.238L5 207.238C3.61929 207.238 2.44078 206.75 1.46447 205.774C0.488155 204.797 0 203.619 0 202.238L0 201.143Z" id="Rectangle" fill="#BF85BF" fillRule="evenodd" stroke="none" />
    <path d="M0 103.619L0 102.524C0 101.143 0.488155 99.9646 1.46447 98.9883C2.44078 98.012 3.61929 97.5238 5 97.5238L68.1429 97.5238C69.5236 97.5238 70.7021 98.012 71.6784 98.9883C72.6547 99.9646 73.1429 101.143 73.1429 102.524L73.1429 104.714C73.1429 106.095 72.6547 107.273 71.6784 108.25C70.7021 109.226 69.5236 109.714 68.1429 109.714L5 109.714C3.61929 109.714 2.44078 109.226 1.46447 108.25C0.488155 107.273 0 106.095 0 104.714L0 103.619Z" id="Rectangle" fill="#BF85BF" fillRule="evenodd" stroke="none" />
    <path d="M60.9524 30.4762L60.9524 29.381C60.9524 28.0003 61.4405 26.8218 62.4169 25.8454C63.3932 24.8691 64.5717 24.381 65.9524 24.381L190.048 24.381C191.428 24.381 192.607 24.8691 193.583 25.8454C194.559 26.8218 195.048 28.0003 195.048 29.381L195.048 31.5715C195.048 32.9522 194.559 34.1307 193.583 35.107C192.607 36.0833 191.428 36.5715 190.048 36.5715L65.9524 36.5715C64.5717 36.5715 63.3932 36.0833 62.4169 35.107C61.4405 34.1307 60.9524 32.9522 60.9524 31.5715L60.9524 30.4762Z" id="Rectangle" fill="#F7BA3E" fillRule="evenodd" stroke="none" />
    <path d="M0 30.4762L0 29.381C0 28.0003 0.488155 26.8218 1.46447 25.8454C2.44078 24.8691 3.61929 24.381 5 24.381L43.7619 24.381C45.1426 24.381 46.3211 24.8691 47.2974 25.8454C48.2737 26.8218 48.7619 28.0003 48.7619 29.381L48.7619 31.5715C48.7619 32.9522 48.2737 34.1307 47.2974 35.107C46.3211 36.0833 45.1426 36.5715 43.7619 36.5715L5 36.5715C3.61929 36.5715 2.44078 36.0833 1.46447 35.107C0.488155 34.1307 0 32.9522 0 31.5715L0 30.4762Z" id="Rectangle" fill="#EA5E5E" fillRule="evenodd" stroke="none" />
    <path d="M48.762 225.524L48.762 224.429C48.762 223.048 49.2501 221.869 50.2264 220.893C51.2027 219.917 52.3813 219.429 53.762 219.429L68.1429 219.429C69.5236 219.429 70.7021 219.917 71.6785 220.893C72.6548 221.869 73.1429 223.048 73.1429 224.429L73.1429 226.619C73.1429 228 72.6548 229.178 71.6785 230.155C70.7021 231.131 69.5236 231.619 68.1429 231.619L53.762 231.619C52.3813 231.619 51.2027 231.131 50.2264 230.155C49.2501 229.178 48.762 228 48.762 226.619L48.762 225.524Z" id="Rectangle" fill="#F7BA3E" fillRule="evenodd" stroke="none" />
    <path d="M48.762 79.2381L48.762 78.1429C48.762 76.7622 49.2501 75.5837 50.2264 74.6073C51.2027 73.631 52.3813 73.1429 53.762 73.1429L68.1429 73.1429C69.5236 73.1429 70.7021 73.631 71.6785 74.6073C72.6548 75.5837 73.1429 76.7622 73.1429 78.1429L73.1429 80.3334C73.1429 81.7141 72.6548 82.8926 71.6785 83.8689C70.7021 84.8452 69.5236 85.3334 68.1429 85.3334L53.762 85.3334C52.3813 85.3334 51.2027 84.8452 50.2264 83.8689C49.2501 82.8926 48.762 81.7141 48.762 80.3334L48.762 79.2381Z" id="Rectangle" fill="#56B3B4" fillRule="evenodd" stroke="none" />
    <path d="M0 225.524L0 224.429C0 223.048 0.488155 221.869 1.46447 220.893C2.44078 219.917 3.61929 219.429 5 219.429L31.5714 219.429C32.9521 219.429 34.1306 219.917 35.107 220.893C36.0833 221.869 36.5714 223.048 36.5714 224.429L36.5714 226.619C36.5714 228 36.0833 229.178 35.107 230.155C34.1306 231.131 32.9521 231.619 31.5714 231.619L5 231.619C3.61929 231.619 2.44078 231.131 1.46447 230.155C0.488155 229.178 0 228 0 226.619L0 225.524Z" id="Rectangle" fill="#56B3B4" fillRule="evenodd" stroke="none" />
    <path d="M0 79.2381L0 78.1429C0 76.7622 0.488155 75.5837 1.46447 74.6073C2.44078 73.631 3.61929 73.1429 5 73.1429L31.5714 73.1429C32.9521 73.1429 34.1306 73.631 35.107 74.6073C36.0833 75.5837 36.5714 76.7622 36.5714 78.1429L36.5714 80.3334C36.5714 81.7141 36.0833 82.8926 35.107 83.8689C34.1306 84.8452 32.9521 85.3334 31.5714 85.3334L5 85.3334C3.61929 85.3334 2.44078 84.8452 1.46447 83.8689C0.488155 82.8926 0 81.7141 0 80.3334L0 79.2381Z" id="Rectangle" fill="#F7BA3E" fillRule="evenodd" stroke="none" />
    <path d="M158.476 225.524L158.476 224.429C158.476 223.048 158.964 221.869 159.941 220.893C160.917 219.917 162.096 219.429 163.476 219.429L177.857 219.429C179.238 219.429 180.416 219.917 181.393 220.893C182.369 221.869 182.857 223.048 182.857 224.429L182.857 226.619C182.857 228 182.369 229.178 181.393 230.155C180.416 231.131 179.238 231.619 177.857 231.619L163.476 231.619C162.096 231.619 160.917 231.131 159.941 230.155C158.964 229.178 158.476 228 158.476 226.619L158.476 225.524Z" id="Rectangle" fill="#D0D4D8" fillOpacity="0.5" fillRule="evenodd" stroke="none" />
    <path d="M85.3333 225.524L85.3333 224.429C85.3333 223.048 85.8214 221.869 86.7977 220.893C87.774 219.917 88.9525 219.429 90.3333 219.429L141.286 219.429C142.666 219.429 143.845 219.917 144.821 220.893C145.797 221.869 146.286 223.048 146.286 224.429L146.286 226.619C146.286 228 145.797 229.178 144.821 230.155C143.845 231.131 142.666 231.619 141.286 231.619L90.3333 231.619C88.9525 231.619 87.774 231.131 86.7977 230.155C85.8214 229.178 85.3333 228 85.3333 226.619L85.3333 225.524Z" id="Rectangle" fill="#D0D4D8" fillOpacity="0.5" fillRule="evenodd" stroke="none" />
    <path d="M195.048 225.524L195.048 224.429C195.048 223.048 195.536 221.869 196.512 220.893C197.488 219.917 198.667 219.429 200.048 219.429L251 219.429C252.381 219.429 253.559 219.917 254.536 220.893C255.512 221.869 256 223.048 256 224.429L256 226.619C256 228 255.512 229.178 254.536 230.155C253.559 231.131 252.381 231.619 251 231.619L200.048 231.619C198.667 231.619 197.488 231.131 196.512 230.155C195.536 229.178 195.048 228 195.048 226.619L195.048 225.524Z" id="Rectangle" fill="#D0D4D8" fillOpacity="0.5" fillRule="evenodd" stroke="none" />
    <path d="M97.5239 128L97.5239 126.905C97.5239 125.524 98.0121 124.346 98.9884 123.369C99.9647 122.393 101.143 121.905 102.524 121.905L202.238 121.905C203.619 121.905 204.797 122.393 205.774 123.369C206.75 124.346 207.238 125.524 207.238 126.905L207.238 129.095C207.238 130.476 206.75 131.654 205.774 132.631C204.797 133.607 203.619 134.095 202.238 134.095L102.524 134.095C101.143 134.095 99.9647 133.607 98.9884 132.631C98.0121 131.654 97.5239 130.476 97.5239 129.095L97.5239 128Z" id="Rectangle" fill="#56B3B4" fillRule="evenodd" stroke="none" />
    <path d="M36.5715 128L36.5715 126.905C36.5715 125.524 37.0597 124.346 38.036 123.369C39.0123 122.393 40.1908 121.905 41.5715 121.905L80.3334 121.905C81.7141 121.905 82.8927 122.393 83.869 123.369C84.8453 124.346 85.3334 125.524 85.3334 126.905L85.3334 129.095C85.3334 130.476 84.8453 131.654 83.869 132.631C82.8927 133.607 81.7141 134.095 80.3334 134.095L41.5715 134.095C40.1908 134.095 39.0123 133.607 38.036 132.631C37.0597 131.654 36.5715 130.476 36.5715 129.095L36.5715 128Z" id="Rectangle" fill="#F7BA3E" fillRule="evenodd" stroke="none" />
    <path d="M0 128L0 126.905C0 125.524 0.488155 124.346 1.46447 123.369C2.44078 122.393 3.61929 121.905 5 121.905L19.381 121.905C20.7617 121.905 21.9402 122.393 22.9165 123.369C23.8928 124.346 24.381 125.524 24.381 126.905L24.381 129.095C24.381 130.476 23.8928 131.654 22.9165 132.631C21.9402 133.607 20.7617 134.095 19.381 134.095L5 134.095C3.61929 134.095 2.44078 133.607 1.46447 132.631C0.488155 131.654 0 130.476 0 129.095L0 128Z" id="Rectangle" fill="#EA5E5E" fillRule="evenodd" stroke="none" />
    <path d="M109.714 54.8571L109.714 53.7619C109.714 52.3812 110.203 51.2027 111.179 50.2264C112.155 49.2501 113.334 48.7619 114.714 48.7619L165.667 48.7619C167.047 48.7619 168.226 49.2501 169.202 50.2264C170.179 51.2027 170.667 52.3812 170.667 53.7619L170.667 55.9524C170.667 57.3331 170.179 58.5116 169.202 59.4879C168.226 60.4642 167.047 60.9524 165.667 60.9524L114.714 60.9524C113.334 60.9524 112.155 60.4642 111.179 59.4879C110.203 58.5116 109.714 57.3331 109.714 55.9524L109.714 54.8571Z" id="Rectangle" fill="#BF85BF" fillRule="evenodd" stroke="none" />
    <path d="M0 54.8571L0 53.7619C0 52.3812 0.488155 51.2027 1.46447 50.2264C2.44078 49.2501 3.61929 48.7619 5 48.7619L92.5238 48.7619C93.9045 48.7619 95.083 49.2501 96.0593 50.2264C97.0356 51.2027 97.5238 52.3812 97.5238 53.7619L97.5238 55.9524C97.5238 57.3331 97.0356 58.5116 96.0593 59.4879C95.083 60.4642 93.9045 60.9524 92.5238 60.9524L5 60.9524C3.61929 60.9524 2.44078 60.4642 1.46447 59.4879C0.488155 58.5116 0 57.3331 0 55.9524L0 54.8571Z" id="Rectangle" fill="#56B3B4" fillRule="evenodd" stroke="none" />
    <path d="M36.5715 176.762L36.5715 175.667C36.5715 174.286 37.0597 173.107 38.036 172.131C39.0123 171.155 40.1908 170.667 41.5715 170.667L153.476 170.667C154.857 170.667 156.036 171.155 157.012 172.131C157.988 173.107 158.476 174.286 158.476 175.667L158.476 177.857C158.476 179.238 157.988 180.416 157.012 181.393C156.036 182.369 154.857 182.857 153.476 182.857L41.5715 182.857C40.1908 182.857 39.0123 182.369 38.036 181.393C37.0597 180.416 36.5715 179.238 36.5715 177.857L36.5715 176.762Z" id="Rectangle" fill="#F7BA3E" fillRule="evenodd" stroke="none" />
    <path d="M0 176.762L0 175.667C0 174.286 0.488155 173.107 1.46447 172.131C2.44078 171.155 3.61929 170.667 5 170.667L19.381 170.667C20.7617 170.667 21.9402 171.155 22.9165 172.131C23.8928 173.107 24.381 174.286 24.381 175.667L24.381 177.857C24.381 179.238 23.8928 180.416 22.9165 181.393C21.9402 182.369 20.7617 182.857 19.381 182.857L5 182.857C3.61929 182.857 2.44078 182.369 1.46447 181.393C0.488155 180.416 0 179.238 0 177.857L0 176.762Z" id="Rectangle" fill="#BF85BF" fillRule="evenodd" stroke="none" />
    <path d="M146.286 79.2381L146.286 78.1429C146.286 76.7622 146.774 75.5837 147.75 74.6073C148.726 73.631 149.905 73.1429 151.286 73.1429L214.428 73.1429C215.809 73.1429 216.988 73.631 217.964 74.6073C218.94 75.5837 219.428 76.7622 219.428 78.1429L219.428 80.3334C219.428 81.7141 218.94 82.8926 217.964 83.8689C216.988 84.8452 215.809 85.3334 214.428 85.3334L151.286 85.3334C149.905 85.3334 148.726 84.8452 147.75 83.8689C146.774 82.8926 146.286 81.7141 146.286 80.3334L146.286 79.2381Z" id="Rectangle" fill="#EA5E5E" fillRule="evenodd" stroke="none" />
    <path d="M146.286 103.619L146.286 102.524C146.286 101.143 146.774 99.9646 147.75 98.9883C148.726 98.012 149.905 97.5238 151.286 97.5238L214.428 97.5238C215.809 97.5238 216.988 98.012 217.964 98.9883C218.94 99.9646 219.428 101.143 219.428 102.524L219.428 104.714C219.428 106.095 218.94 107.273 217.964 108.25C216.988 109.226 215.809 109.714 214.428 109.714L151.286 109.714C149.905 109.714 148.726 109.226 147.75 108.25C146.774 107.273 146.286 106.095 146.286 104.714L146.286 103.619Z" id="Rectangle" fill="#F7BA3E" fillRule="evenodd" stroke="none" />
    <path d="M0 6.09524L0 5C0 3.61929 0.488155 2.44078 1.46447 1.46447C2.44078 0.488155 3.61929 0 5 0L153.476 0C154.857 0 156.035 0.488155 157.012 1.46447C157.988 2.44078 158.476 3.61929 158.476 5L158.476 7.19048C158.476 8.57119 157.988 9.7497 157.012 10.726C156.035 11.7023 154.857 12.1905 153.476 12.1905L5 12.1905C3.61929 12.1905 2.44078 11.7023 1.46447 10.726C0.488155 9.7497 0 8.57119 0 7.19048L0 6.09524Z" id="Rectangle" fill="#56B3B4" fillRule="evenodd" stroke="none" />
    <path d="M170.667 6.09524L170.667 5C170.667 3.61929 171.155 2.44078 172.131 1.46447C173.108 0.488155 174.286 0 175.667 0L251 0C252.381 0 253.559 0.488155 254.536 1.46447C255.512 2.44078 256 3.61929 256 5L256 7.19048C256 8.57119 255.512 9.7497 254.536 10.726C253.559 11.7023 252.381 12.1905 251 12.1905L175.667 12.1905C174.286 12.1905 173.108 11.7023 172.131 10.726C171.155 9.7497 170.667 8.57119 170.667 7.19048L170.667 6.09524Z" id="Rectangle" fill="#D0D4D8" fillOpacity="0.5" fillRule="evenodd" stroke="none" />
    <path d="M170.667 176.762L170.667 175.667C170.667 174.286 171.155 173.107 172.131 172.131C173.108 171.155 174.286 170.667 175.667 170.667L202.238 170.667C203.619 170.667 204.797 171.155 205.774 172.131C206.75 173.107 207.238 174.286 207.238 175.667L207.238 177.857C207.238 179.238 206.75 180.416 205.774 181.393C204.797 182.369 203.619 182.857 202.238 182.857L175.667 182.857C174.286 182.857 173.108 182.369 172.131 181.393C171.155 180.416 170.667 179.238 170.667 177.857L170.667 176.762Z" id="Rectangle" fill="#D0D4D8" fillOpacity="0.5" fillRule="evenodd" stroke="none" />
    <path d="M219.428 176.762L219.428 175.667C219.428 174.286 219.917 173.107 220.893 172.131C221.869 171.155 223.048 170.667 224.428 170.667L251 170.667C252.381 170.667 253.559 171.155 254.535 172.131C255.512 173.107 256 174.286 256 175.667L256 177.857C256 179.238 255.512 180.416 254.535 181.393C253.559 182.369 252.381 182.857 251 182.857L224.428 182.857C223.048 182.857 221.869 182.369 220.893 181.393C219.917 180.416 219.428 179.238 219.428 177.857L219.428 176.762Z" id="Rectangle" fill="#D0D4D8" fillOpacity="0.5" fillRule="evenodd" stroke="none" />
    <path d="M207.238 152.381L207.238 151.286C207.238 149.905 207.726 148.726 208.702 147.75C209.679 146.774 210.857 146.286 212.238 146.286L251 146.286C252.381 146.286 253.559 146.774 254.535 147.75C255.512 148.726 256 149.905 256 151.286L256 153.476C256 154.857 255.512 156.035 254.535 157.012C253.559 157.988 252.381 158.476 251 158.476L212.238 158.476C210.857 158.476 209.679 157.988 208.702 157.012C207.726 156.035 207.238 154.857 207.238 153.476L207.238 152.381Z" id="Rectangle" fill="#D0D4D8" fillOpacity="0.5" fillRule="evenodd" stroke="none" />
    <path d="M207.238 30.4762L207.238 29.381C207.238 28.0003 207.726 26.8218 208.702 25.8454C209.679 24.8691 210.857 24.381 212.238 24.381L251 24.381C252.381 24.381 253.559 24.8691 254.535 25.8454C255.512 26.8218 256 28.0003 256 29.381L256 31.5715C256 32.9522 255.512 34.1307 254.535 35.107C253.559 36.0833 252.381 36.5715 251 36.5715L212.238 36.5715C210.857 36.5715 209.679 36.0833 208.702 35.107C207.726 34.1307 207.238 32.9522 207.238 31.5715L207.238 30.4762Z" id="Rectangle" fill="#D0D4D8" fillOpacity="0.5" fillRule="evenodd" stroke="none" />
    <path d="M219.428 128L219.428 126.905C219.428 125.524 219.917 124.346 220.893 123.369C221.869 122.393 223.048 121.905 224.428 121.905L251 121.905C252.381 121.905 253.559 122.393 254.535 123.369C255.512 124.346 256 125.524 256 126.905L256 129.095C256 130.476 255.512 131.654 254.535 132.631C253.559 133.607 252.381 134.095 251 134.095L224.428 134.095C223.048 134.095 221.869 133.607 220.893 132.631C219.917 131.654 219.428 130.476 219.428 129.095L219.428 128Z" id="Rectangle" fill="#D0D4D8" fillOpacity="0.5" fillRule="evenodd" stroke="none" />
    <path d="M219.428 54.8571L219.428 53.7619C219.428 52.3812 219.917 51.2027 220.893 50.2264C221.869 49.2501 223.048 48.7619 224.428 48.7619L251 48.7619C252.381 48.7619 253.559 49.2501 254.535 50.2264C255.512 51.2027 256 52.3812 256 53.7619L256 55.9524C256 57.3331 255.512 58.5116 254.535 59.4879C253.559 60.4642 252.381 60.9524 251 60.9524L224.428 60.9524C223.048 60.9524 221.869 60.4642 220.893 59.4879C219.917 58.5116 219.428 57.3331 219.428 55.9524L219.428 54.8571Z" id="Rectangle" fill="#D0D4D8" fillOpacity="0.5" fillRule="evenodd" stroke="none" />
    <path d="M231.619 79.2381L231.619 78.1429C231.619 76.7622 232.107 75.5837 233.084 74.6073C234.06 73.631 235.238 73.1429 236.619 73.1429L251 73.1429C252.381 73.1429 253.559 73.631 254.536 74.6073C255.512 75.5837 256 76.7622 256 78.1429L256 80.3334C256 81.7141 255.512 82.8926 254.536 83.8689C253.559 84.8452 252.381 85.3334 251 85.3334L236.619 85.3334C235.238 85.3334 234.06 84.8452 233.084 83.8689C232.107 82.8926 231.619 81.7141 231.619 80.3334L231.619 79.2381Z" id="Rectangle" fill="#D0D4D8" fillOpacity="0.5" fillRule="evenodd" stroke="none" />
    <path d="M231.619 103.619L231.619 102.524C231.619 101.143 232.107 99.9646 233.084 98.9883C234.06 98.012 235.238 97.5238 236.619 97.5238L251 97.5238C252.381 97.5238 253.559 98.012 254.536 98.9883C255.512 99.9646 256 101.143 256 102.524L256 104.714C256 106.095 255.512 107.273 254.536 108.25C253.559 109.226 252.381 109.714 251 109.714L236.619 109.714C235.238 109.714 234.06 109.226 233.084 108.25C232.107 107.273 231.619 106.095 231.619 104.714L231.619 103.619Z" id="Rectangle" fill="#D0D4D8" fillOpacity="0.5" fillRule="evenodd" stroke="none" />
    <path d="M134.095 201.143L134.095 200.048C134.095 198.667 134.583 197.488 135.56 196.512C136.536 195.536 137.715 195.048 139.095 195.048L251 195.048C252.381 195.048 253.559 195.536 254.536 196.512C255.512 197.488 256 198.667 256 200.048L256 202.238C256 203.619 255.512 204.797 254.536 205.774C253.559 206.75 252.381 207.238 251 207.238L139.095 207.238C137.715 207.238 136.536 206.75 135.56 205.774C134.583 204.797 134.095 203.619 134.095 202.238L134.095 201.143Z" id="Rectangle" fill="#D0D4D8" fillOpacity="0.5" fillRule="evenodd" stroke="none" />
    <path d="M85.3333 201.143L85.3333 200.048C85.3333 198.667 85.8214 197.488 86.7977 196.512C87.774 195.536 88.9525 195.048 90.3333 195.048L116.905 195.048C118.285 195.048 119.464 195.536 120.44 196.512C121.417 197.488 121.905 198.667 121.905 200.048L121.905 202.238C121.905 203.619 121.417 204.797 120.44 205.774C119.464 206.75 118.285 207.238 116.905 207.238L90.3333 207.238C88.9525 207.238 87.774 206.75 86.7977 205.774C85.8214 204.797 85.3333 203.619 85.3333 202.238L85.3333 201.143Z" id="Rectangle" fill="#D0D4D8" fillOpacity="0.5" fillRule="evenodd" stroke="none" />
    <path d="M182.857 249.905L182.857 248.81C182.857 247.429 183.345 246.25 184.322 245.274C185.298 244.298 186.476 243.81 187.857 243.81L251 243.81C252.381 243.81 253.559 244.298 254.536 245.274C255.512 246.25 256 247.429 256 248.81L256 251C256 252.381 255.512 253.559 254.536 254.536C253.559 255.512 252.381 256 251 256L187.857 256C186.476 256 185.298 255.512 184.322 254.536C183.345 253.559 182.857 252.381 182.857 251L182.857 249.905Z" id="Rectangle" fill="#D0D4D8" fillOpacity="0.5" fillRule="evenodd" stroke="none" />
    <path d="M85.3333 249.905L85.3333 248.81C85.3333 247.429 85.8214 246.25 86.7977 245.274C87.774 244.298 88.9525 243.81 90.3333 243.81L165.667 243.81C167.047 243.81 168.226 244.298 169.202 245.274C170.178 246.25 170.667 247.429 170.667 248.81L170.667 251C170.667 252.381 170.178 253.559 169.202 254.536C168.226 255.512 167.047 256 165.667 256L90.3333 256C88.9525 256 87.774 255.512 86.7977 254.536C85.8214 253.559 85.3333 252.381 85.3333 251L85.3333 249.905Z" id="Rectangle" fill="#D0D4D8" fillOpacity="0.5" fillRule="evenodd" stroke="none" />
    <path d="M85.3333 79.2381L85.3333 78.1429C85.3333 76.7622 85.8214 75.5837 86.7977 74.6073C87.774 73.631 88.9525 73.1429 90.3333 73.1429L129.095 73.1429C130.476 73.1429 131.654 73.631 132.631 74.6073C133.607 75.5837 134.095 76.7622 134.095 78.1429L134.095 80.3334C134.095 81.7141 133.607 82.8926 132.631 83.8689C131.654 84.8452 130.476 85.3334 129.095 85.3334L90.3333 85.3334C88.9525 85.3334 87.774 84.8452 86.7977 83.8689C85.8214 82.8926 85.3333 81.7141 85.3333 80.3334L85.3333 79.2381Z" id="Rectangle" fill="#D0D4D8" fillOpacity="0.5" fillRule="evenodd" stroke="none" />
    <path d="M85.3333 103.619L85.3333 102.524C85.3333 101.143 85.8214 99.9646 86.7977 98.9883C87.774 98.012 88.9525 97.5238 90.3333 97.5238L129.095 97.5238C130.476 97.5238 131.654 98.012 132.631 98.9883C133.607 99.9646 134.095 101.143 134.095 102.524L134.095 104.714C134.095 106.095 133.607 107.273 132.631 108.25C131.654 109.226 130.476 109.714 129.095 109.714L90.3333 109.714C88.9525 109.714 87.774 109.226 86.7977 108.25C85.8214 107.273 85.3333 106.095 85.3333 104.714L85.3333 103.619Z" id="Rectangle" fill="#D0D4D8" fillOpacity="0.5" fillRule="evenodd" stroke="none" />
  </g>
</svg>