<svg width="344px" height="344px" viewBox="0 0 344 344" version="1.1"
  xmlns:xlink="http://www.w3.org/1999/xlink"
  xmlns="http://www.w3.org/2000/svg">
  <defs>
    <path d="M0 0L344 0L344 344L0 344L0 0Z" id="path_1" />
    <clipPath id="mask_1">
      <use xlink:href="#path_1" />
    </clipPath>
  </defs>
  <g id="Grupo-2">
    <path d="M0 0L344 0L344 344L0 344L0 0Z" id="Rectángulo" fill="none" fill-rule="evenodd" stroke="none" />
    <g clip-path="url(#mask_1)">
      <g id="Grupo" transform="translate(11.429199 0.664978)">
        <path d="M282.006 342.67L220.84 281.489L219.906 281.623L219.906 280.952L89.8276 151.747L121.88 120.62L103.049 11.9431L13.7037 123.303C-1.52098 138.733 -4.32558 163.822 6.62552 182.338L62.4496 275.451C70.9966 289.807 86.4886 298.394 103.183 298.26L130.828 297.991L282.006 342.67L282.006 342.67Z" id="Forma" fill="#18B6F6" stroke="none" />
        <path d="M315.388 121.156L303.102 98.3471L296.691 86.6751L294.154 82.1131L293.887 82.3811L260.232 23.7495C251.818 8.99085 236.059 -0.132645 218.965 0.00145721L189.45 0.806458L101.441 1.07485C84.7466 1.20895 69.5216 10.0642 61.1086 24.4201L7.55469 131.219L103.311 11.6743L228.848 150.405L206.545 173.079L219.9 281.622L220.033 281.354L220.033 281.622L219.766 281.622L220.033 281.89L230.45 292.087L281.066 341.864C283.203 343.876 286.675 341.461 285.206 338.912L253.955 277.06L308.444 175.763L310.18 173.75C310.848 172.945 311.515 172.14 312.05 171.335C322.733 156.711 324.203 137.122 315.388 121.156L315.388 121.156Z" id="Forma" fill="#AC7EF4" stroke="none" />
        <path d="M229.247 149.869L103.309 11.8088L121.205 119.949L89.1526 151.21L219.631 281.488L207.879 173.348L229.247 149.869L229.247 149.869Z" id="Forma" fill="#FFFFFF" stroke="none" />
      </g>
    </g>
  </g>
</svg>